<mxfile host="app.diagrams.net" modified="2022-12-13T09:05:22.049Z" agent="5.0 (Macintosh; Intel Mac OS X 10_15_7) AppleWebKit/537.36 (KHTML, like Gecko) Chrome/107.0.0.0 Safari/537.36" etag="NvbVO4E5aQUYBg8sFufU" version="20.4.0" type="github" pages="3">
  <diagram id="gWpfDHFNE3KKYQMcA2ZL" name="第 1 页">
    <mxGraphModel dx="749" dy="496" grid="1" gridSize="10" guides="1" tooltips="1" connect="1" arrows="1" fold="1" page="1" pageScale="1" pageWidth="827" pageHeight="1169" math="0" shadow="1">
      <root>
        <mxCell id="0" />
        <mxCell id="1" parent="0" />
        <mxCell id="KSl4At89BIPdw04Hjlh8-6" value="前置准备：" style="text;html=1;align=center;verticalAlign=middle;resizable=0;points=[];autosize=1;strokeColor=none;fillColor=none;strokeWidth=18;" vertex="1" parent="1">
          <mxGeometry x="40" y="15" width="80" height="30" as="geometry" />
        </mxCell>
        <mxCell id="d_l_meYMVR6LQ_iqVjTL-1" style="edgeStyle=orthogonalEdgeStyle;rounded=0;orthogonalLoop=1;jettySize=auto;html=1;exitX=0.5;exitY=1;exitDx=0;exitDy=0;fontFamily=Verdana;fontSize=15;fontColor=#FF3333;" edge="1" parent="1" source="KSl4At89BIPdw04Hjlh8-81">
          <mxGeometry relative="1" as="geometry">
            <mxPoint x="414" y="520" as="targetPoint" />
          </mxGeometry>
        </mxCell>
        <mxCell id="KSl4At89BIPdw04Hjlh8-81" value="导入供应方给到的Excel" style="rounded=1;whiteSpace=wrap;html=1;" vertex="1" parent="1">
          <mxGeometry x="354" y="120" width="120" height="60" as="geometry" />
        </mxCell>
        <mxCell id="KSl4At89BIPdw04Hjlh8-82" style="edgeStyle=orthogonalEdgeStyle;rounded=0;orthogonalLoop=1;jettySize=auto;html=1;exitX=1;exitY=0.5;exitDx=0;exitDy=0;entryX=0;entryY=0.5;entryDx=0;entryDy=0;fontFamily=Verdana;fontSize=13;" edge="1" parent="1" source="KSl4At89BIPdw04Hjlh8-83" target="KSl4At89BIPdw04Hjlh8-81">
          <mxGeometry relative="1" as="geometry" />
        </mxCell>
        <mxCell id="KSl4At89BIPdw04Hjlh8-83" value="上游导出包含EAS_ID的Excel" style="rounded=1;whiteSpace=wrap;html=1;strokeWidth=1;fontFamily=Verdana;fontSize=13;strokeColor=default;" vertex="1" parent="1">
          <mxGeometry x="90" y="120" width="120" height="60" as="geometry" />
        </mxCell>
        <mxCell id="KSl4At89BIPdw04Hjlh8-84" value="提交到供应方" style="text;html=1;align=center;verticalAlign=middle;resizable=0;points=[];autosize=1;strokeColor=none;fillColor=none;fontSize=13;fontFamily=Verdana;" vertex="1" parent="1">
          <mxGeometry x="220" y="120" width="100" height="30" as="geometry" />
        </mxCell>
        <mxCell id="KSl4At89BIPdw04Hjlh8-85" value="施工时填充网关数据" style="text;html=1;align=center;verticalAlign=middle;resizable=0;points=[];autosize=1;strokeColor=none;fillColor=none;fontSize=13;fontFamily=Verdana;" vertex="1" parent="1">
          <mxGeometry x="210" y="150" width="140" height="30" as="geometry" />
        </mxCell>
        <mxCell id="KSl4At89BIPdw04Hjlh8-86" value="同步设备" style="whiteSpace=wrap;html=1;shape=partialRectangle;top=0;left=0;bottom=1;right=0;points=[[0,1],[1,1]];fillColor=none;align=center;verticalAlign=bottom;routingCenterY=0.5;snapToPoint=1;recursiveResize=0;autosize=1;treeFolding=1;treeMoving=1;newEdgeStyle={&quot;edgeStyle&quot;:&quot;entityRelationEdgeStyle&quot;,&quot;startArrow&quot;:&quot;none&quot;,&quot;endArrow&quot;:&quot;none&quot;,&quot;segment&quot;:10,&quot;curved&quot;:1};strokeColor=default;strokeWidth=1;fontFamily=Verdana;fontSize=13;shadow=1;sketch=1;" vertex="1" parent="1">
          <mxGeometry x="595" y="100" width="90" height="30" as="geometry" />
        </mxCell>
        <mxCell id="KSl4At89BIPdw04Hjlh8-87" value="" style="edgeStyle=entityRelationEdgeStyle;startArrow=none;endArrow=none;segment=10;curved=1;rounded=0;fontFamily=Verdana;fontSize=13;" edge="1" parent="1" target="KSl4At89BIPdw04Hjlh8-86">
          <mxGeometry relative="1" as="geometry">
            <mxPoint x="550" y="160" as="sourcePoint" />
          </mxGeometry>
        </mxCell>
        <mxCell id="KSl4At89BIPdw04Hjlh8-88" value="同步房间" style="whiteSpace=wrap;html=1;shape=partialRectangle;top=0;left=0;bottom=1;right=0;points=[[0,1],[1,1]];fillColor=none;align=center;verticalAlign=bottom;routingCenterY=0.5;snapToPoint=1;recursiveResize=0;autosize=1;treeFolding=1;treeMoving=1;newEdgeStyle={&quot;edgeStyle&quot;:&quot;entityRelationEdgeStyle&quot;,&quot;startArrow&quot;:&quot;none&quot;,&quot;endArrow&quot;:&quot;none&quot;,&quot;segment&quot;:10,&quot;curved&quot;:1};strokeColor=default;strokeWidth=1;fontFamily=Verdana;fontSize=13;shadow=1;sketch=1;" vertex="1" parent="1">
          <mxGeometry x="595" y="140" width="90" height="30" as="geometry" />
        </mxCell>
        <mxCell id="KSl4At89BIPdw04Hjlh8-89" value="" style="edgeStyle=entityRelationEdgeStyle;startArrow=none;endArrow=none;segment=10;curved=1;rounded=0;fontFamily=Verdana;fontSize=13;" edge="1" parent="1" target="KSl4At89BIPdw04Hjlh8-88">
          <mxGeometry relative="1" as="geometry">
            <mxPoint x="550" y="160" as="sourcePoint" />
          </mxGeometry>
        </mxCell>
        <mxCell id="KSl4At89BIPdw04Hjlh8-90" value="同步场景" style="whiteSpace=wrap;html=1;shape=partialRectangle;top=0;left=0;bottom=1;right=0;points=[[0,1],[1,1]];fillColor=none;align=center;verticalAlign=bottom;routingCenterY=0.5;snapToPoint=1;recursiveResize=0;autosize=1;treeFolding=1;treeMoving=1;newEdgeStyle={&quot;edgeStyle&quot;:&quot;entityRelationEdgeStyle&quot;,&quot;startArrow&quot;:&quot;none&quot;,&quot;endArrow&quot;:&quot;none&quot;,&quot;segment&quot;:10,&quot;curved&quot;:1};strokeColor=default;strokeWidth=1;fontFamily=Verdana;fontSize=13;shadow=1;sketch=1;" vertex="1" parent="1">
          <mxGeometry x="595" y="180" width="90" height="30" as="geometry" />
        </mxCell>
        <mxCell id="KSl4At89BIPdw04Hjlh8-91" value="" style="edgeStyle=entityRelationEdgeStyle;startArrow=none;endArrow=none;segment=10;curved=1;rounded=0;fontFamily=Verdana;fontSize=13;" edge="1" parent="1" target="KSl4At89BIPdw04Hjlh8-90">
          <mxGeometry relative="1" as="geometry">
            <mxPoint x="550" y="160" as="sourcePoint" />
          </mxGeometry>
        </mxCell>
        <mxCell id="KSl4At89BIPdw04Hjlh8-92" value="" style="edgeStyle=elbowEdgeStyle;elbow=vertical;startArrow=none;endArrow=none;rounded=0;fontFamily=Verdana;fontSize=13;" edge="1" parent="1" source="KSl4At89BIPdw04Hjlh8-94" target="KSl4At89BIPdw04Hjlh8-95">
          <mxGeometry relative="1" as="geometry" />
        </mxCell>
        <mxCell id="KSl4At89BIPdw04Hjlh8-93" value="" style="edgeStyle=elbowEdgeStyle;elbow=vertical;startArrow=none;endArrow=none;rounded=0;fontFamily=Verdana;fontSize=13;" edge="1" parent="1" source="KSl4At89BIPdw04Hjlh8-94" target="KSl4At89BIPdw04Hjlh8-96">
          <mxGeometry relative="1" as="geometry" />
        </mxCell>
        <UserObject label="&lt;span style=&quot;font-weight: 700;&quot;&gt;字典&lt;/span&gt;" treeRoot="1" id="KSl4At89BIPdw04Hjlh8-94">
          <mxCell style="whiteSpace=wrap;html=1;align=center;treeFolding=1;treeMoving=1;newEdgeStyle={&quot;edgeStyle&quot;:&quot;elbowEdgeStyle&quot;,&quot;startArrow&quot;:&quot;none&quot;,&quot;endArrow&quot;:&quot;none&quot;};shadow=1;sketch=1;strokeColor=default;strokeWidth=1;fontFamily=Verdana;fontSize=13;" vertex="1" parent="1">
            <mxGeometry x="220" y="260" width="120" height="60" as="geometry" />
          </mxCell>
        </UserObject>
        <mxCell id="KSl4At89BIPdw04Hjlh8-95" value="&lt;a href=&quot;http://10.220.88.97:8081/#/dict/type/data/60&quot; class=&quot;link-type&quot; style=&quot;box-sizing: inherit; background-color: rgb(245, 247, 250); cursor: pointer; color: rgb(32, 160, 255); text-decoration-line: none; font-family: &amp;quot;Helvetica Neue&amp;quot;, Helvetica, &amp;quot;PingFang SC&amp;quot;, &amp;quot;Hiragino Sans GB&amp;quot;, &amp;quot;Microsoft YaHei&amp;quot;, Arial, sans-serif; font-size: 12px;&quot;&gt;&lt;span style=&quot;box-sizing: inherit;&quot;&gt;product_type&lt;/span&gt;&lt;/a&gt;" style="whiteSpace=wrap;html=1;align=center;verticalAlign=middle;treeFolding=1;treeMoving=1;newEdgeStyle={&quot;edgeStyle&quot;:&quot;elbowEdgeStyle&quot;,&quot;startArrow&quot;:&quot;none&quot;,&quot;endArrow&quot;:&quot;none&quot;};shadow=1;sketch=1;strokeColor=default;strokeWidth=1;fontFamily=Verdana;fontSize=13;" vertex="1" parent="1">
          <mxGeometry x="160" y="360" width="100" height="60" as="geometry" />
        </mxCell>
        <mxCell id="KSl4At89BIPdw04Hjlh8-96" value="&lt;a href=&quot;http://10.220.88.97:8081/#/dict/type/data/58&quot; class=&quot;link-type&quot; style=&quot;box-sizing: inherit; background-color: rgb(245, 247, 250); cursor: pointer; color: rgb(51, 122, 183); text-decoration-line: none; font-family: &amp;quot;Helvetica Neue&amp;quot;, Helvetica, &amp;quot;PingFang SC&amp;quot;, &amp;quot;Hiragino Sans GB&amp;quot;, &amp;quot;Microsoft YaHei&amp;quot;, Arial, sans-serif; font-size: 12px;&quot;&gt;&lt;span style=&quot;box-sizing: inherit;&quot;&gt;source_type&lt;/span&gt;&lt;/a&gt;" style="whiteSpace=wrap;html=1;align=center;verticalAlign=middle;treeFolding=1;treeMoving=1;newEdgeStyle={&quot;edgeStyle&quot;:&quot;elbowEdgeStyle&quot;,&quot;startArrow&quot;:&quot;none&quot;,&quot;endArrow&quot;:&quot;none&quot;};shadow=1;sketch=1;strokeColor=default;strokeWidth=1;fontFamily=Verdana;fontSize=13;" vertex="1" parent="1">
          <mxGeometry x="300" y="360" width="100" height="60" as="geometry" />
        </mxCell>
        <mxCell id="KSl4At89BIPdw04Hjlh8-97" value="" style="endArrow=classic;html=1;rounded=0;fontFamily=Verdana;fontSize=13;entryX=0.674;entryY=-0.004;entryDx=0;entryDy=0;entryPerimeter=0;" edge="1" parent="1" target="KSl4At89BIPdw04Hjlh8-94">
          <mxGeometry relative="1" as="geometry">
            <mxPoint x="410" y="180" as="sourcePoint" />
            <mxPoint x="470" y="300" as="targetPoint" />
          </mxGeometry>
        </mxCell>
        <mxCell id="KSl4At89BIPdw04Hjlh8-98" value="字典数据准备" style="edgeLabel;resizable=0;html=1;align=center;verticalAlign=middle;shadow=1;sketch=1;strokeColor=default;strokeWidth=1;fontFamily=Verdana;fontSize=13;" connectable="0" vertex="1" parent="KSl4At89BIPdw04Hjlh8-97">
          <mxGeometry relative="1" as="geometry" />
        </mxCell>
        <mxCell id="KSl4At89BIPdw04Hjlh8-99" value="" style="endArrow=classic;html=1;rounded=0;fontFamily=Verdana;fontSize=13;" edge="1" parent="1">
          <mxGeometry relative="1" as="geometry">
            <mxPoint x="420" y="180" as="sourcePoint" />
            <mxPoint x="510" y="260" as="targetPoint" />
          </mxGeometry>
        </mxCell>
        <mxCell id="KSl4At89BIPdw04Hjlh8-100" value="资源准备" style="edgeLabel;resizable=0;html=1;align=center;verticalAlign=middle;shadow=1;sketch=1;strokeColor=default;strokeWidth=1;fontFamily=Verdana;fontSize=13;" connectable="0" vertex="1" parent="KSl4At89BIPdw04Hjlh8-99">
          <mxGeometry relative="1" as="geometry" />
        </mxCell>
        <mxCell id="KSl4At89BIPdw04Hjlh8-101" value="" style="edgeStyle=elbowEdgeStyle;elbow=vertical;startArrow=none;endArrow=none;rounded=0;fontFamily=Verdana;fontSize=13;" edge="1" parent="1" source="KSl4At89BIPdw04Hjlh8-103" target="KSl4At89BIPdw04Hjlh8-104">
          <mxGeometry relative="1" as="geometry" />
        </mxCell>
        <mxCell id="KSl4At89BIPdw04Hjlh8-102" value="" style="edgeStyle=elbowEdgeStyle;elbow=vertical;startArrow=none;endArrow=none;rounded=0;fontFamily=Verdana;fontSize=13;" edge="1" parent="1" source="KSl4At89BIPdw04Hjlh8-103" target="KSl4At89BIPdw04Hjlh8-105">
          <mxGeometry relative="1" as="geometry" />
        </mxCell>
        <UserObject label="&lt;span style=&quot;font-weight: 700;&quot;&gt;场景&amp;amp;房间&lt;/span&gt;" treeRoot="1" id="KSl4At89BIPdw04Hjlh8-103">
          <mxCell style="whiteSpace=wrap;html=1;align=center;treeFolding=1;treeMoving=1;newEdgeStyle={&quot;edgeStyle&quot;:&quot;elbowEdgeStyle&quot;,&quot;startArrow&quot;:&quot;none&quot;,&quot;endArrow&quot;:&quot;none&quot;};shadow=1;sketch=1;strokeColor=default;strokeWidth=1;fontFamily=Verdana;fontSize=13;" vertex="1" parent="1">
            <mxGeometry x="470" y="260" width="120" height="60" as="geometry" />
          </mxCell>
        </UserObject>
        <mxCell id="KSl4At89BIPdw04Hjlh8-104" value="背景图" style="whiteSpace=wrap;html=1;align=center;verticalAlign=middle;treeFolding=1;treeMoving=1;newEdgeStyle={&quot;edgeStyle&quot;:&quot;elbowEdgeStyle&quot;,&quot;startArrow&quot;:&quot;none&quot;,&quot;endArrow&quot;:&quot;none&quot;};shadow=1;sketch=1;strokeColor=default;strokeWidth=1;fontFamily=Verdana;fontSize=13;" vertex="1" parent="1">
          <mxGeometry x="410" y="360" width="100" height="60" as="geometry" />
        </mxCell>
        <mxCell id="KSl4At89BIPdw04Hjlh8-105" value="图标" style="whiteSpace=wrap;html=1;align=center;verticalAlign=middle;treeFolding=1;treeMoving=1;newEdgeStyle={&quot;edgeStyle&quot;:&quot;elbowEdgeStyle&quot;,&quot;startArrow&quot;:&quot;none&quot;,&quot;endArrow&quot;:&quot;none&quot;};shadow=1;sketch=1;strokeColor=default;strokeWidth=1;fontFamily=Verdana;fontSize=13;" vertex="1" parent="1">
          <mxGeometry x="550" y="360" width="100" height="60" as="geometry" />
        </mxCell>
        <mxCell id="KSl4At89BIPdw04Hjlh8-106" value="" style="endArrow=none;dashed=1;html=1;dashPattern=1 3;strokeWidth=2;rounded=0;fontFamily=Verdana;fontSize=13;" edge="1" parent="1">
          <mxGeometry width="50" height="50" relative="1" as="geometry">
            <mxPoint x="480" y="160" as="sourcePoint" />
            <mxPoint x="540" y="160" as="targetPoint" />
          </mxGeometry>
        </mxCell>
        <mxCell id="KSl4At89BIPdw04Hjlh8-107" value="" style="endArrow=none;dashed=1;html=1;dashPattern=1 3;strokeWidth=2;rounded=0;fontFamily=Verdana;fontSize=13;" edge="1" parent="1">
          <mxGeometry width="50" height="50" relative="1" as="geometry">
            <mxPoint x="724.47" y="499.9999999999998" as="sourcePoint" />
            <mxPoint x="540" y="160" as="targetPoint" />
          </mxGeometry>
        </mxCell>
        <mxCell id="KSl4At89BIPdw04Hjlh8-108" value="确认对应项目的户型数据已同步" style="shape=tapeData;whiteSpace=wrap;html=1;perimeter=ellipsePerimeter;shadow=1;sketch=1;strokeColor=default;strokeWidth=1;fontFamily=Verdana;fontSize=13;" vertex="1" parent="1">
          <mxGeometry x="680" y="500" width="90" height="80" as="geometry" />
        </mxCell>
        <mxCell id="KSl4At89BIPdw04Hjlh8-109" value="&lt;font color=&quot;#ff3333&quot;&gt;后台同步&lt;/font&gt;" style="rounded=0;whiteSpace=wrap;html=1;shadow=1;sketch=1;strokeColor=default;strokeWidth=1;fontFamily=Verdana;fontSize=13;" vertex="1" parent="1">
          <mxGeometry x="570" y="640" width="120" height="60" as="geometry" />
        </mxCell>
        <mxCell id="KSl4At89BIPdw04Hjlh8-110" value="" style="endArrow=classic;html=1;rounded=0;fontFamily=Verdana;fontSize=13;entryX=0.415;entryY=-0.004;entryDx=0;entryDy=0;entryPerimeter=0;" edge="1" parent="1" target="KSl4At89BIPdw04Hjlh8-109">
          <mxGeometry relative="1" as="geometry">
            <mxPoint x="700" y="569.9999999999998" as="sourcePoint" />
            <mxPoint x="785" y="600" as="targetPoint" />
          </mxGeometry>
        </mxCell>
        <mxCell id="KSl4At89BIPdw04Hjlh8-111" value="未同步" style="edgeLabel;resizable=0;html=1;align=center;verticalAlign=middle;shadow=1;sketch=1;strokeColor=default;strokeWidth=1;fontFamily=Verdana;fontSize=13;" connectable="0" vertex="1" parent="KSl4At89BIPdw04Hjlh8-110">
          <mxGeometry relative="1" as="geometry" />
        </mxCell>
        <mxCell id="KSl4At89BIPdw04Hjlh8-112" value="该数据通常不需要手动同步,&lt;br&gt;由定时器定时从智慧查验系统同步" style="text;html=1;align=center;verticalAlign=middle;resizable=0;points=[];autosize=1;strokeColor=none;fillColor=none;fontSize=13;fontFamily=Verdana;" vertex="1" parent="1">
          <mxGeometry x="740" y="560" width="220" height="40" as="geometry" />
        </mxCell>
        <mxCell id="KSl4At89BIPdw04Hjlh8-113" value="" style="endArrow=none;dashed=1;html=1;dashPattern=1 3;strokeWidth=2;rounded=0;fontFamily=Verdana;fontSize=13;" edge="1" parent="1">
          <mxGeometry width="50" height="50" relative="1" as="geometry">
            <mxPoint x="700" y="120" as="sourcePoint" />
            <mxPoint x="840" y="120" as="targetPoint" />
          </mxGeometry>
        </mxCell>
        <mxCell id="KSl4At89BIPdw04Hjlh8-114" value="绑定子产品/配置子产品(显隐/开关图)" style="rounded=0;whiteSpace=wrap;html=1;shadow=1;sketch=1;strokeColor=default;strokeWidth=1;fontFamily=Verdana;fontSize=13;" vertex="1" parent="1">
          <mxGeometry x="840" y="90" width="120" height="60" as="geometry" />
        </mxCell>
        <mxCell id="KSl4At89BIPdw04Hjlh8-115" value="w" style="endArrow=classic;html=1;rounded=0;fontFamily=Verdana;fontSize=13;" edge="1" parent="1">
          <mxGeometry relative="1" as="geometry">
            <mxPoint x="720" y="579.47" as="sourcePoint" />
            <mxPoint x="790" y="639.9999999999998" as="targetPoint" />
          </mxGeometry>
        </mxCell>
        <mxCell id="KSl4At89BIPdw04Hjlh8-116" value="已同步" style="edgeLabel;resizable=0;html=1;align=center;verticalAlign=middle;shadow=1;sketch=1;strokeColor=default;strokeWidth=1;fontFamily=Verdana;fontSize=13;" connectable="0" vertex="1" parent="KSl4At89BIPdw04Hjlh8-115">
          <mxGeometry relative="1" as="geometry" />
        </mxCell>
        <mxCell id="KSl4At89BIPdw04Hjlh8-117" value="配置户型对应的产品" style="rounded=0;whiteSpace=wrap;html=1;shadow=1;sketch=1;strokeColor=default;strokeWidth=1;fontFamily=Verdana;fontSize=13;" vertex="1" parent="1">
          <mxGeometry x="740" y="640" width="120" height="60" as="geometry" />
        </mxCell>
        <mxCell id="KSl4At89BIPdw04Hjlh8-118" value="" style="endArrow=none;dashed=1;html=1;rounded=0;fontFamily=Verdana;fontSize=13;" edge="1" parent="1">
          <mxGeometry width="50" height="50" relative="1" as="geometry">
            <mxPoint x="900" y="559.9999999999998" as="sourcePoint" />
            <mxPoint x="900" y="150" as="targetPoint" />
          </mxGeometry>
        </mxCell>
        <mxCell id="KSl4At89BIPdw04Hjlh8-119" value="" style="endArrow=none;dashed=1;html=1;dashPattern=1 3;strokeWidth=2;rounded=0;fontFamily=Verdana;fontSize=13;exitX=1.029;exitY=0.365;exitDx=0;exitDy=0;exitPerimeter=0;" edge="1" parent="1" source="KSl4At89BIPdw04Hjlh8-117">
          <mxGeometry width="50" height="50" relative="1" as="geometry">
            <mxPoint x="850" y="610" as="sourcePoint" />
            <mxPoint x="900" y="559.9999999999998" as="targetPoint" />
          </mxGeometry>
        </mxCell>
        <mxCell id="d_l_meYMVR6LQ_iqVjTL-2" value="操作指令准备" style="rounded=0;whiteSpace=wrap;html=1;shadow=1;sketch=1;strokeColor=default;strokeWidth=1;fontFamily=Verdana;fontSize=15;fontColor=#FF3333;" vertex="1" parent="1">
          <mxGeometry x="360" y="520" width="120" height="60" as="geometry" />
        </mxCell>
        <mxCell id="d_l_meYMVR6LQ_iqVjTL-3" value="指令目前只能通过&lt;br&gt;供应方的文档得知&lt;br&gt;然后由后台维护" style="text;html=1;align=center;verticalAlign=middle;resizable=0;points=[];autosize=1;strokeColor=none;fillColor=none;fontSize=15;fontFamily=Verdana;fontColor=#FF3333;" vertex="1" parent="1">
          <mxGeometry x="270" y="450" width="140" height="70" as="geometry" />
        </mxCell>
        <mxCell id="AQFrwF7pHFAdXbbFIqoO-1" value="社区大脑" style="rounded=0;whiteSpace=wrap;html=1;shadow=1;sketch=1;strokeColor=default;strokeWidth=1;fontFamily=Verdana;fontSize=15;fontColor=#FF3333;" vertex="1" parent="1">
          <mxGeometry x="420" y="860" width="120" height="60" as="geometry" />
        </mxCell>
        <mxCell id="AQFrwF7pHFAdXbbFIqoO-3" style="edgeStyle=orthogonalEdgeStyle;rounded=0;orthogonalLoop=1;jettySize=auto;html=1;exitX=1;exitY=0.5;exitDx=0;exitDy=0;entryX=0;entryY=0.5;entryDx=0;entryDy=0;fontFamily=Verdana;fontSize=15;fontColor=#FF3333;" edge="1" parent="1" source="AQFrwF7pHFAdXbbFIqoO-2" target="AQFrwF7pHFAdXbbFIqoO-1">
          <mxGeometry relative="1" as="geometry" />
        </mxCell>
        <mxCell id="AQFrwF7pHFAdXbbFIqoO-6" style="edgeStyle=orthogonalEdgeStyle;rounded=0;orthogonalLoop=1;jettySize=auto;html=1;exitX=0.5;exitY=0;exitDx=0;exitDy=0;fontFamily=Verdana;fontSize=15;fontColor=#FF3333;" edge="1" parent="1" source="AQFrwF7pHFAdXbbFIqoO-2">
          <mxGeometry relative="1" as="geometry">
            <mxPoint x="140.45454545454538" y="780" as="targetPoint" />
          </mxGeometry>
        </mxCell>
        <mxCell id="AQFrwF7pHFAdXbbFIqoO-2" value="KOA" style="rounded=0;whiteSpace=wrap;html=1;shadow=1;sketch=1;strokeColor=default;strokeWidth=1;fontFamily=Verdana;fontSize=15;fontColor=#FF3333;" vertex="1" parent="1">
          <mxGeometry x="80" y="860" width="120" height="60" as="geometry" />
        </mxCell>
        <mxCell id="AQFrwF7pHFAdXbbFIqoO-4" value="钻石会" style="rounded=0;whiteSpace=wrap;html=1;shadow=1;sketch=1;strokeColor=default;strokeWidth=1;fontFamily=Verdana;fontSize=15;fontColor=#FF3333;" vertex="1" parent="1">
          <mxGeometry x="250" y="860" width="120" height="60" as="geometry" />
        </mxCell>
        <mxCell id="AQFrwF7pHFAdXbbFIqoO-5" value="已经被交付" style="text;html=1;align=center;verticalAlign=middle;resizable=0;points=[];autosize=1;strokeColor=none;fillColor=none;fontSize=15;fontFamily=Verdana;fontColor=#FF3333;" vertex="1" parent="1">
          <mxGeometry x="260" y="805" width="100" height="30" as="geometry" />
        </mxCell>
        <mxCell id="AQFrwF7pHFAdXbbFIqoO-7" value="EAS_ID" style="rounded=0;whiteSpace=wrap;html=1;shadow=1;sketch=1;strokeColor=default;strokeWidth=1;fontFamily=Verdana;fontSize=15;fontColor=#FF3333;" vertex="1" parent="1">
          <mxGeometry x="80" y="720" width="120" height="60" as="geometry" />
        </mxCell>
        <mxCell id="AQFrwF7pHFAdXbbFIqoO-8" value="KONKE，NEX，HISENSE" style="text;html=1;align=center;verticalAlign=middle;resizable=0;points=[];autosize=1;strokeColor=none;fillColor=none;fontSize=15;fontFamily=Verdana;fontColor=#FF3333;" vertex="1" parent="1">
          <mxGeometry x="175" y="55" width="210" height="30" as="geometry" />
        </mxCell>
        <mxCell id="AQFrwF7pHFAdXbbFIqoO-9" value="GATEWAY" style="text;html=1;align=center;verticalAlign=middle;resizable=0;points=[];autosize=1;strokeColor=none;fillColor=none;fontSize=15;fontFamily=Verdana;fontColor=#FF3333;" vertex="1" parent="1">
          <mxGeometry x="400" y="55" width="100" height="30" as="geometry" />
        </mxCell>
        <mxCell id="AQFrwF7pHFAdXbbFIqoO-13" value="" style="rounded=0;whiteSpace=wrap;html=1;shadow=1;sketch=1;strokeColor=default;strokeWidth=1;fontFamily=Verdana;fontSize=15;fontColor=#FF3333;" vertex="1" parent="1">
          <mxGeometry x="380" y="1180" width="120" height="60" as="geometry" />
        </mxCell>
        <mxCell id="AQFrwF7pHFAdXbbFIqoO-16" style="edgeStyle=orthogonalEdgeStyle;rounded=0;orthogonalLoop=1;jettySize=auto;html=1;exitX=0;exitY=0.5;exitDx=0;exitDy=0;entryX=1.014;entryY=0.368;entryDx=0;entryDy=0;entryPerimeter=0;fontFamily=Verdana;fontSize=15;fontColor=#FF3333;" edge="1" parent="1" source="AQFrwF7pHFAdXbbFIqoO-14" target="AQFrwF7pHFAdXbbFIqoO-15">
          <mxGeometry relative="1" as="geometry" />
        </mxCell>
        <mxCell id="AQFrwF7pHFAdXbbFIqoO-14" value="场景" style="rounded=0;whiteSpace=wrap;html=1;shadow=1;sketch=1;strokeColor=default;strokeWidth=1;fontFamily=Verdana;fontSize=15;fontColor=#FF3333;" vertex="1" parent="1">
          <mxGeometry x="380" y="1169" width="120" height="60" as="geometry" />
        </mxCell>
        <mxCell id="AQFrwF7pHFAdXbbFIqoO-15" value="资源" style="rounded=0;whiteSpace=wrap;html=1;shadow=1;sketch=1;strokeColor=default;strokeWidth=1;fontFamily=Verdana;fontSize=15;fontColor=#FF3333;" vertex="1" parent="1">
          <mxGeometry x="175" y="1180" width="120" height="60" as="geometry" />
        </mxCell>
        <mxCell id="AQFrwF7pHFAdXbbFIqoO-17" value="回家" style="text;html=1;align=center;verticalAlign=middle;resizable=0;points=[];autosize=1;strokeColor=none;fillColor=none;fontSize=15;fontFamily=Verdana;fontColor=#FF3333;" vertex="1" parent="1">
          <mxGeometry x="555" y="1195" width="50" height="30" as="geometry" />
        </mxCell>
        <mxCell id="WO8gcXk6ZF6oJcjy11VP-2" style="edgeStyle=orthogonalEdgeStyle;rounded=0;orthogonalLoop=1;jettySize=auto;html=1;exitX=0;exitY=1;exitDx=0;exitDy=0;fontFamily=Verdana;fontSize=15;fontColor=#FF3333;" edge="1" parent="1" source="WO8gcXk6ZF6oJcjy11VP-1">
          <mxGeometry relative="1" as="geometry">
            <mxPoint x="350" y="1510" as="targetPoint" />
          </mxGeometry>
        </mxCell>
        <mxCell id="WO8gcXk6ZF6oJcjy11VP-4" style="edgeStyle=orthogonalEdgeStyle;rounded=0;orthogonalLoop=1;jettySize=auto;html=1;exitX=1;exitY=1;exitDx=0;exitDy=0;fontFamily=Verdana;fontSize=15;fontColor=#FF3333;" edge="1" parent="1" source="WO8gcXk6ZF6oJcjy11VP-1">
          <mxGeometry relative="1" as="geometry">
            <mxPoint x="620" y="1500" as="targetPoint" />
          </mxGeometry>
        </mxCell>
        <mxCell id="WO8gcXk6ZF6oJcjy11VP-1" value="网关" style="ellipse;whiteSpace=wrap;html=1;shadow=1;sketch=1;strokeColor=default;strokeWidth=1;fontFamily=Verdana;fontSize=15;fontColor=#FF3333;" vertex="1" parent="1">
          <mxGeometry x="414" y="1410" width="120" height="80" as="geometry" />
        </mxCell>
        <mxCell id="WO8gcXk6ZF6oJcjy11VP-3" value="灯1" style="rounded=0;whiteSpace=wrap;html=1;shadow=1;sketch=1;strokeColor=default;strokeWidth=1;fontFamily=Verdana;fontSize=15;fontColor=#FF3333;" vertex="1" parent="1">
          <mxGeometry x="294" y="1510" width="120" height="60" as="geometry" />
        </mxCell>
        <mxCell id="WO8gcXk6ZF6oJcjy11VP-5" value="灯2" style="rounded=0;whiteSpace=wrap;html=1;shadow=1;sketch=1;strokeColor=default;strokeWidth=1;fontFamily=Verdana;fontSize=15;fontColor=#FF3333;" vertex="1" parent="1">
          <mxGeometry x="540" y="1500" width="120" height="60" as="geometry" />
        </mxCell>
      </root>
    </mxGraphModel>
  </diagram>
  <diagram id="MbNCm1r9F3K5iD98pZZq" name="第 2 页">
    <mxGraphModel dx="1692" dy="561" grid="1" gridSize="10" guides="1" tooltips="1" connect="1" arrows="1" fold="1" page="1" pageScale="1" pageWidth="827" pageHeight="1169" math="0" shadow="0">
      <root>
        <mxCell id="0" />
        <mxCell id="1" parent="0" />
        <mxCell id="KFzVTJrG9wokYDyDmrX3-46" value="Actor" style="shape=umlActor;verticalLabelPosition=bottom;verticalAlign=top;html=1;outlineConnect=0;shadow=1;sketch=1;strokeColor=default;strokeWidth=1;fontFamily=Verdana;fontSize=13;" vertex="1" parent="1">
          <mxGeometry x="185" y="140" width="30" height="60" as="geometry" />
        </mxCell>
        <mxCell id="KFzVTJrG9wokYDyDmrX3-47" value="" style="endArrow=classic;startArrow=classic;html=1;rounded=0;fontFamily=Verdana;fontSize=13;entryX=0;entryY=0.5;entryDx=0;entryDy=0;" edge="1" parent="1" target="KFzVTJrG9wokYDyDmrX3-52">
          <mxGeometry width="50" height="50" relative="1" as="geometry">
            <mxPoint x="215" y="180" as="sourcePoint" />
            <mxPoint x="304.9999999999998" y="180" as="targetPoint" />
          </mxGeometry>
        </mxCell>
        <mxCell id="KFzVTJrG9wokYDyDmrX3-48" value="授权手机号" style="edgeLabel;html=1;align=center;verticalAlign=middle;resizable=0;points=[];fontSize=13;fontFamily=Verdana;fontColor=#7EA6E0;" vertex="1" connectable="0" parent="KFzVTJrG9wokYDyDmrX3-47">
          <mxGeometry x="0.0012" y="-1" relative="1" as="geometry">
            <mxPoint x="-1" y="-1" as="offset" />
          </mxGeometry>
        </mxCell>
        <mxCell id="KFzVTJrG9wokYDyDmrX3-49" style="edgeStyle=orthogonalEdgeStyle;rounded=0;orthogonalLoop=1;jettySize=auto;html=1;exitX=0.5;exitY=1;exitDx=0;exitDy=0;fontFamily=Verdana;fontSize=13;fontColor=#7EA6E0;entryX=0.5;entryY=0;entryDx=0;entryDy=0;" edge="1" parent="1" source="KFzVTJrG9wokYDyDmrX3-52" target="KFzVTJrG9wokYDyDmrX3-59">
          <mxGeometry relative="1" as="geometry">
            <mxPoint x="344.9999999999998" y="270" as="targetPoint" />
          </mxGeometry>
        </mxCell>
        <mxCell id="KFzVTJrG9wokYDyDmrX3-50" style="edgeStyle=orthogonalEdgeStyle;rounded=0;orthogonalLoop=1;jettySize=auto;html=1;exitX=1;exitY=0.5;exitDx=0;exitDy=0;entryX=0;entryY=0.5;entryDx=0;entryDy=0;fontFamily=Verdana;fontSize=13;fontColor=#000000;" edge="1" parent="1" source="KFzVTJrG9wokYDyDmrX3-52" target="KFzVTJrG9wokYDyDmrX3-78">
          <mxGeometry relative="1" as="geometry" />
        </mxCell>
        <mxCell id="KFzVTJrG9wokYDyDmrX3-51" value="查询网关下的数据" style="edgeLabel;html=1;align=center;verticalAlign=middle;resizable=0;points=[];fontSize=13;fontFamily=Verdana;fontColor=#000000;" vertex="1" connectable="0" parent="KFzVTJrG9wokYDyDmrX3-50">
          <mxGeometry x="-0.0916" relative="1" as="geometry">
            <mxPoint as="offset" />
          </mxGeometry>
        </mxCell>
        <mxCell id="KFzVTJrG9wokYDyDmrX3-52" value="通过手机号查找业主的房屋数据" style="rounded=0;whiteSpace=wrap;html=1;shadow=1;sketch=1;strokeColor=default;strokeWidth=1;fontFamily=Verdana;fontSize=13;" vertex="1" parent="1">
          <mxGeometry x="395" y="150" width="120" height="60" as="geometry" />
        </mxCell>
        <mxCell id="KFzVTJrG9wokYDyDmrX3-53" value="&lt;font style=&quot;font-size: 17px;&quot; color=&quot;#7ea6e0&quot;&gt;业务流程&lt;/font&gt;" style="text;html=1;align=center;verticalAlign=middle;resizable=0;points=[];autosize=1;strokeColor=none;fillColor=none;fontSize=13;fontFamily=Verdana;fontColor=#FF3333;" vertex="1" parent="1">
          <mxGeometry x="110" y="60" width="90" height="30" as="geometry" />
        </mxCell>
        <mxCell id="KFzVTJrG9wokYDyDmrX3-54" value="&lt;span style=&quot;color: rgb(255, 51, 51);&quot;&gt;owner表必须有业主的手机号&lt;/span&gt;" style="text;html=1;align=center;verticalAlign=middle;resizable=0;points=[];autosize=1;strokeColor=none;fillColor=none;fontSize=13;fontFamily=Verdana;fontColor=#7EA6E0;" vertex="1" parent="1">
          <mxGeometry x="365" y="120" width="190" height="30" as="geometry" />
        </mxCell>
        <mxCell id="KFzVTJrG9wokYDyDmrX3-55" style="edgeStyle=orthogonalEdgeStyle;rounded=0;orthogonalLoop=1;jettySize=auto;html=1;exitX=0.5;exitY=1;exitDx=0;exitDy=0;fontFamily=Verdana;fontSize=13;fontColor=#000000;" edge="1" parent="1" source="KFzVTJrG9wokYDyDmrX3-59">
          <mxGeometry relative="1" as="geometry">
            <mxPoint x="345" y="400" as="targetPoint" />
          </mxGeometry>
        </mxCell>
        <mxCell id="KFzVTJrG9wokYDyDmrX3-56" value="True" style="edgeLabel;html=1;align=center;verticalAlign=middle;resizable=0;points=[];fontSize=13;fontFamily=Verdana;fontColor=#000000;" vertex="1" connectable="0" parent="KFzVTJrG9wokYDyDmrX3-55">
          <mxGeometry x="0.0585" y="3" relative="1" as="geometry">
            <mxPoint x="1" as="offset" />
          </mxGeometry>
        </mxCell>
        <mxCell id="KFzVTJrG9wokYDyDmrX3-57" style="edgeStyle=orthogonalEdgeStyle;rounded=0;orthogonalLoop=1;jettySize=auto;html=1;exitX=0.5;exitY=1;exitDx=0;exitDy=0;fontFamily=Verdana;fontSize=13;fontColor=#000000;entryX=1;entryY=0.5;entryDx=0;entryDy=0;" edge="1" parent="1" source="KFzVTJrG9wokYDyDmrX3-59" target="KFzVTJrG9wokYDyDmrX3-66">
          <mxGeometry relative="1" as="geometry">
            <mxPoint x="565" y="420" as="targetPoint" />
          </mxGeometry>
        </mxCell>
        <mxCell id="KFzVTJrG9wokYDyDmrX3-58" value="False" style="edgeLabel;html=1;align=center;verticalAlign=middle;resizable=0;points=[];fontSize=13;fontFamily=Verdana;fontColor=#000000;" vertex="1" connectable="0" parent="KFzVTJrG9wokYDyDmrX3-57">
          <mxGeometry x="-0.0164" y="-3" relative="1" as="geometry">
            <mxPoint as="offset" />
          </mxGeometry>
        </mxCell>
        <mxCell id="KFzVTJrG9wokYDyDmrX3-59" value="&lt;font color=&quot;#000000&quot;&gt;登陆用户是否为查验员&lt;/font&gt;" style="rounded=0;whiteSpace=wrap;html=1;shadow=1;sketch=1;strokeColor=default;strokeWidth=1;fontFamily=Verdana;fontSize=13;fontColor=#7EA6E0;" vertex="1" parent="1">
          <mxGeometry x="395" y="270" width="120" height="60" as="geometry" />
        </mxCell>
        <mxCell id="KFzVTJrG9wokYDyDmrX3-60" style="edgeStyle=orthogonalEdgeStyle;rounded=0;orthogonalLoop=1;jettySize=auto;html=1;exitX=0.5;exitY=1;exitDx=0;exitDy=0;fontFamily=Verdana;fontSize=13;fontColor=#000000;" edge="1" parent="1" source="KFzVTJrG9wokYDyDmrX3-61">
          <mxGeometry relative="1" as="geometry">
            <mxPoint x="344.78947368421086" y="530" as="targetPoint" />
          </mxGeometry>
        </mxCell>
        <mxCell id="KFzVTJrG9wokYDyDmrX3-61" value="查出查验员关联的房屋" style="rounded=0;whiteSpace=wrap;html=1;shadow=1;sketch=1;strokeColor=default;strokeWidth=1;fontFamily=Verdana;fontSize=13;fontColor=#000000;" vertex="1" parent="1">
          <mxGeometry x="285" y="400" width="120" height="60" as="geometry" />
        </mxCell>
        <mxCell id="KFzVTJrG9wokYDyDmrX3-62" style="edgeStyle=orthogonalEdgeStyle;rounded=0;orthogonalLoop=1;jettySize=auto;html=1;exitX=0.5;exitY=1;exitDx=0;exitDy=0;fontFamily=Verdana;fontSize=13;fontColor=#000000;" edge="1" parent="1" source="KFzVTJrG9wokYDyDmrX3-66">
          <mxGeometry relative="1" as="geometry">
            <mxPoint x="235" y="650" as="targetPoint" />
          </mxGeometry>
        </mxCell>
        <mxCell id="KFzVTJrG9wokYDyDmrX3-63" value="True" style="edgeLabel;html=1;align=center;verticalAlign=middle;resizable=0;points=[];fontSize=13;fontFamily=Verdana;fontColor=#000000;" vertex="1" connectable="0" parent="KFzVTJrG9wokYDyDmrX3-62">
          <mxGeometry x="0.0303" y="2" relative="1" as="geometry">
            <mxPoint as="offset" />
          </mxGeometry>
        </mxCell>
        <mxCell id="KFzVTJrG9wokYDyDmrX3-64" style="edgeStyle=orthogonalEdgeStyle;rounded=0;orthogonalLoop=1;jettySize=auto;html=1;exitX=0.5;exitY=1;exitDx=0;exitDy=0;fontFamily=Verdana;fontSize=13;fontColor=#000000;" edge="1" parent="1" source="KFzVTJrG9wokYDyDmrX3-66">
          <mxGeometry relative="1" as="geometry">
            <mxPoint x="435" y="650" as="targetPoint" />
          </mxGeometry>
        </mxCell>
        <mxCell id="KFzVTJrG9wokYDyDmrX3-65" value="False" style="edgeLabel;html=1;align=center;verticalAlign=middle;resizable=0;points=[];fontSize=13;fontFamily=Verdana;fontColor=#000000;" vertex="1" connectable="0" parent="KFzVTJrG9wokYDyDmrX3-64">
          <mxGeometry x="0.0077" y="-3" relative="1" as="geometry">
            <mxPoint as="offset" />
          </mxGeometry>
        </mxCell>
        <mxCell id="KFzVTJrG9wokYDyDmrX3-66" value="登陆用户是否为业主" style="rounded=0;whiteSpace=wrap;html=1;shadow=1;sketch=1;strokeColor=default;strokeWidth=1;fontFamily=Verdana;fontSize=13;fontColor=#000000;" vertex="1" parent="1">
          <mxGeometry x="285" y="530" width="120" height="60" as="geometry" />
        </mxCell>
        <mxCell id="KFzVTJrG9wokYDyDmrX3-67" style="edgeStyle=orthogonalEdgeStyle;rounded=0;orthogonalLoop=1;jettySize=auto;html=1;exitX=0.5;exitY=1;exitDx=0;exitDy=0;fontFamily=Verdana;fontSize=13;fontColor=#000000;" edge="1" parent="1" source="KFzVTJrG9wokYDyDmrX3-68">
          <mxGeometry relative="1" as="geometry">
            <mxPoint x="335" y="770" as="targetPoint" />
          </mxGeometry>
        </mxCell>
        <mxCell id="KFzVTJrG9wokYDyDmrX3-68" value="查出查验员为业主的房屋" style="rounded=0;whiteSpace=wrap;html=1;shadow=1;sketch=1;strokeColor=default;strokeWidth=1;fontFamily=Verdana;fontSize=13;fontColor=#000000;" vertex="1" parent="1">
          <mxGeometry x="175" y="650" width="120" height="60" as="geometry" />
        </mxCell>
        <mxCell id="KFzVTJrG9wokYDyDmrX3-69" style="edgeStyle=orthogonalEdgeStyle;rounded=0;orthogonalLoop=1;jettySize=auto;html=1;exitX=0.5;exitY=1;exitDx=0;exitDy=0;fontFamily=Verdana;fontSize=13;fontColor=#000000;" edge="1" parent="1" source="KFzVTJrG9wokYDyDmrX3-70">
          <mxGeometry relative="1" as="geometry">
            <mxPoint x="335" y="770" as="targetPoint" />
          </mxGeometry>
        </mxCell>
        <mxCell id="KFzVTJrG9wokYDyDmrX3-70" value="返回空数据集" style="rounded=0;whiteSpace=wrap;html=1;shadow=1;sketch=1;strokeColor=default;strokeWidth=1;fontFamily=Verdana;fontSize=13;fontColor=#000000;" vertex="1" parent="1">
          <mxGeometry x="375" y="650" width="120" height="60" as="geometry" />
        </mxCell>
        <mxCell id="KFzVTJrG9wokYDyDmrX3-71" value="合并房屋数据" style="rounded=0;whiteSpace=wrap;html=1;shadow=1;sketch=1;strokeColor=default;strokeWidth=1;fontFamily=Verdana;fontSize=13;fontColor=#000000;" vertex="1" parent="1">
          <mxGeometry x="275" y="770" width="120" height="60" as="geometry" />
        </mxCell>
        <mxCell id="KFzVTJrG9wokYDyDmrX3-72" value="" style="endArrow=classic;html=1;rounded=0;fontFamily=Verdana;fontSize=13;fontColor=#000000;" edge="1" parent="1">
          <mxGeometry width="50" height="50" relative="1" as="geometry">
            <mxPoint x="275" y="800" as="sourcePoint" />
            <mxPoint x="45" y="800" as="targetPoint" />
          </mxGeometry>
        </mxCell>
        <mxCell id="KFzVTJrG9wokYDyDmrX3-73" value="" style="endArrow=classic;html=1;rounded=0;fontFamily=Verdana;fontSize=13;fontColor=#000000;" edge="1" parent="1">
          <mxGeometry width="50" height="50" relative="1" as="geometry">
            <mxPoint x="45" y="810" as="sourcePoint" />
            <mxPoint x="45" y="119.99999999999977" as="targetPoint" />
          </mxGeometry>
        </mxCell>
        <mxCell id="KFzVTJrG9wokYDyDmrX3-74" value="此房屋数据包含核心网关值" style="edgeLabel;html=1;align=center;verticalAlign=middle;resizable=0;points=[];fontSize=13;fontFamily=Verdana;fontColor=#000000;" vertex="1" connectable="0" parent="KFzVTJrG9wokYDyDmrX3-73">
          <mxGeometry x="-0.0002" y="4" relative="1" as="geometry">
            <mxPoint as="offset" />
          </mxGeometry>
        </mxCell>
        <mxCell id="KFzVTJrG9wokYDyDmrX3-75" value="" style="endArrow=classic;html=1;rounded=0;fontFamily=Verdana;fontSize=13;fontColor=#000000;" edge="1" parent="1">
          <mxGeometry width="50" height="50" relative="1" as="geometry">
            <mxPoint x="45" y="119.99999999999977" as="sourcePoint" />
            <mxPoint x="465" y="119.99999999999977" as="targetPoint" />
          </mxGeometry>
        </mxCell>
        <mxCell id="KFzVTJrG9wokYDyDmrX3-76" value="" style="endArrow=classic;html=1;rounded=0;fontFamily=Verdana;fontSize=13;fontColor=#000000;" edge="1" parent="1">
          <mxGeometry width="50" height="50" relative="1" as="geometry">
            <mxPoint x="459.47000000000025" y="119.99999999999977" as="sourcePoint" />
            <mxPoint x="459.47000000000025" y="150" as="targetPoint" />
          </mxGeometry>
        </mxCell>
        <mxCell id="KFzVTJrG9wokYDyDmrX3-77" style="edgeStyle=orthogonalEdgeStyle;rounded=0;orthogonalLoop=1;jettySize=auto;html=1;exitX=0.5;exitY=1;exitDx=0;exitDy=0;fontFamily=Verdana;fontSize=13;fontColor=#000000;" edge="1" parent="1" source="KFzVTJrG9wokYDyDmrX3-78">
          <mxGeometry relative="1" as="geometry">
            <mxPoint x="795" y="280" as="targetPoint" />
          </mxGeometry>
        </mxCell>
        <mxCell id="KFzVTJrG9wokYDyDmrX3-78" value="&lt;span style=&quot;background-color: rgb(255, 255, 255);&quot;&gt;设备/场景/房间&lt;/span&gt;" style="rounded=0;whiteSpace=wrap;html=1;shadow=1;sketch=1;strokeColor=default;strokeWidth=1;fontFamily=Verdana;fontSize=13;fontColor=#000000;" vertex="1" parent="1">
          <mxGeometry x="735" y="150" width="120" height="60" as="geometry" />
        </mxCell>
        <mxCell id="KFzVTJrG9wokYDyDmrX3-79" value="True" style="edgeStyle=orthogonalEdgeStyle;rounded=0;orthogonalLoop=1;jettySize=auto;html=1;exitX=0.5;exitY=1;exitDx=0;exitDy=0;fontFamily=Verdana;fontSize=13;fontColor=#000000;" edge="1" parent="1" source="KFzVTJrG9wokYDyDmrX3-82">
          <mxGeometry relative="1" as="geometry">
            <mxPoint x="675" y="420" as="targetPoint" />
          </mxGeometry>
        </mxCell>
        <mxCell id="KFzVTJrG9wokYDyDmrX3-80" style="edgeStyle=orthogonalEdgeStyle;rounded=0;orthogonalLoop=1;jettySize=auto;html=1;exitX=0.5;exitY=1;exitDx=0;exitDy=0;fontFamily=Verdana;fontSize=13;fontColor=#000000;" edge="1" parent="1" source="KFzVTJrG9wokYDyDmrX3-82">
          <mxGeometry relative="1" as="geometry">
            <mxPoint x="915" y="420" as="targetPoint" />
          </mxGeometry>
        </mxCell>
        <mxCell id="KFzVTJrG9wokYDyDmrX3-81" value="False" style="edgeLabel;html=1;align=center;verticalAlign=middle;resizable=0;points=[];fontSize=13;fontFamily=Verdana;fontColor=#000000;" vertex="1" connectable="0" parent="KFzVTJrG9wokYDyDmrX3-80">
          <mxGeometry x="0.0747" y="1" relative="1" as="geometry">
            <mxPoint as="offset" />
          </mxGeometry>
        </mxCell>
        <mxCell id="KFzVTJrG9wokYDyDmrX3-82" value="是否具有环境传感设备" style="rounded=0;whiteSpace=wrap;html=1;shadow=1;sketch=1;strokeColor=default;strokeWidth=1;fontFamily=Verdana;fontSize=13;fontColor=#000000;" vertex="1" parent="1">
          <mxGeometry x="735" y="280" width="120" height="60" as="geometry" />
        </mxCell>
        <mxCell id="KFzVTJrG9wokYDyDmrX3-83" style="edgeStyle=orthogonalEdgeStyle;rounded=0;orthogonalLoop=1;jettySize=auto;html=1;exitX=0.5;exitY=1;exitDx=0;exitDy=0;fontFamily=Verdana;fontSize=13;fontColor=#000000;" edge="1" parent="1" source="KFzVTJrG9wokYDyDmrX3-84">
          <mxGeometry relative="1" as="geometry">
            <mxPoint x="795" y="540" as="targetPoint" />
          </mxGeometry>
        </mxCell>
        <mxCell id="KFzVTJrG9wokYDyDmrX3-84" value="封装环境数据" style="rounded=0;whiteSpace=wrap;html=1;shadow=1;sketch=1;strokeColor=default;strokeWidth=1;fontFamily=Verdana;fontSize=13;fontColor=#000000;" vertex="1" parent="1">
          <mxGeometry x="615" y="420" width="120" height="60" as="geometry" />
        </mxCell>
        <mxCell id="KFzVTJrG9wokYDyDmrX3-85" style="edgeStyle=orthogonalEdgeStyle;rounded=0;orthogonalLoop=1;jettySize=auto;html=1;exitX=0.5;exitY=1;exitDx=0;exitDy=0;fontFamily=Verdana;fontSize=13;fontColor=#000000;" edge="1" parent="1" source="KFzVTJrG9wokYDyDmrX3-86">
          <mxGeometry relative="1" as="geometry">
            <mxPoint x="795" y="540" as="targetPoint" />
          </mxGeometry>
        </mxCell>
        <mxCell id="KFzVTJrG9wokYDyDmrX3-86" value="调用高德Api环境数据" style="rounded=0;whiteSpace=wrap;html=1;shadow=1;sketch=1;strokeColor=default;strokeWidth=1;fontFamily=Verdana;fontSize=13;fontColor=#000000;" vertex="1" parent="1">
          <mxGeometry x="855" y="420" width="120" height="60" as="geometry" />
        </mxCell>
        <mxCell id="KFzVTJrG9wokYDyDmrX3-87" style="edgeStyle=orthogonalEdgeStyle;rounded=0;orthogonalLoop=1;jettySize=auto;html=1;exitX=0.5;exitY=1;exitDx=0;exitDy=0;fontFamily=Verdana;fontSize=13;fontColor=#000000;" edge="1" parent="1" source="KFzVTJrG9wokYDyDmrX3-88">
          <mxGeometry relative="1" as="geometry">
            <mxPoint x="794.6315789473688" y="690" as="targetPoint" />
          </mxGeometry>
        </mxCell>
        <mxCell id="KFzVTJrG9wokYDyDmrX3-88" value="整合&lt;br&gt;(温湿度/AQI)" style="rounded=0;whiteSpace=wrap;html=1;shadow=1;sketch=1;strokeColor=default;strokeWidth=1;fontFamily=Verdana;fontSize=13;fontColor=#000000;" vertex="1" parent="1">
          <mxGeometry x="735" y="540" width="120" height="60" as="geometry" />
        </mxCell>
        <mxCell id="KFzVTJrG9wokYDyDmrX3-89" value="&lt;span style=&quot;background-color: rgb(255, 255, 255);&quot;&gt;通过房屋所在项目的CODE查询项目所在区&lt;/span&gt;" style="rounded=0;whiteSpace=wrap;html=1;shadow=1;sketch=1;strokeColor=default;strokeWidth=1;fontFamily=Verdana;fontSize=13;fontColor=#000000;" vertex="1" parent="1">
          <mxGeometry x="735" y="690" width="120" height="70" as="geometry" />
        </mxCell>
        <mxCell id="KFzVTJrG9wokYDyDmrX3-90" value="&lt;font size=&quot;1&quot; color=&quot;#ff3333&quot;&gt;&lt;b&gt;&lt;i style=&quot;font-size: 15px;&quot;&gt;只有配置显示的子产品才能被查出&lt;/i&gt;&lt;/b&gt;&lt;/font&gt;" style="text;html=1;align=center;verticalAlign=middle;resizable=0;points=[];autosize=1;strokeColor=none;fillColor=none;fontSize=13;fontFamily=Verdana;fontColor=#000000;" vertex="1" parent="1">
          <mxGeometry x="680" y="120" width="250" height="30" as="geometry" />
        </mxCell>
      </root>
    </mxGraphModel>
  </diagram>
  <diagram id="qKP2RPszJvXJTRCLa675" name="第 3 页">
    <mxGraphModel dx="2125" dy="841" grid="1" gridSize="10" guides="1" tooltips="1" connect="1" arrows="1" fold="1" page="1" pageScale="1" pageWidth="827" pageHeight="1169" math="0" shadow="0">
      <root>
        <mxCell id="0" />
        <mxCell id="1" parent="0" />
        <mxCell id="YHhesyMBEtdhqf8lsZ6g-1" value="DATA" style="rounded=0;whiteSpace=wrap;html=1;shadow=1;sketch=1;strokeColor=default;strokeWidth=1;fontFamily=Verdana;fontSize=15;fontColor=#FF3333;" vertex="1" parent="1">
          <mxGeometry x="330" y="520" width="120" height="60" as="geometry" />
        </mxCell>
        <mxCell id="YHhesyMBEtdhqf8lsZ6g-5" style="edgeStyle=orthogonalEdgeStyle;rounded=0;orthogonalLoop=1;jettySize=auto;html=1;exitX=0.5;exitY=1;exitDx=0;exitDy=0;fontFamily=Verdana;fontSize=15;fontColor=#FF3333;" edge="1" parent="1" source="YHhesyMBEtdhqf8lsZ6g-2" target="YHhesyMBEtdhqf8lsZ6g-1">
          <mxGeometry relative="1" as="geometry" />
        </mxCell>
        <mxCell id="YHhesyMBEtdhqf8lsZ6g-2" value="Client" style="rounded=0;whiteSpace=wrap;html=1;shadow=1;sketch=1;strokeColor=default;strokeWidth=1;fontFamily=Verdana;fontSize=15;fontColor=#FF3333;" vertex="1" parent="1">
          <mxGeometry x="330" y="140" width="120" height="60" as="geometry" />
        </mxCell>
        <mxCell id="YHhesyMBEtdhqf8lsZ6g-4" style="edgeStyle=orthogonalEdgeStyle;rounded=0;orthogonalLoop=1;jettySize=auto;html=1;exitX=0.5;exitY=0.5;exitDx=0;exitDy=0;exitPerimeter=0;entryX=0;entryY=0.5;entryDx=0;entryDy=0;fontFamily=Verdana;fontSize=15;fontColor=#FF3333;" edge="1" parent="1" source="YHhesyMBEtdhqf8lsZ6g-3" target="YHhesyMBEtdhqf8lsZ6g-2">
          <mxGeometry relative="1" as="geometry" />
        </mxCell>
        <mxCell id="YHhesyMBEtdhqf8lsZ6g-3" value="Actor" style="shape=umlActor;verticalLabelPosition=bottom;verticalAlign=top;html=1;outlineConnect=0;shadow=1;sketch=1;strokeColor=default;strokeWidth=1;fontFamily=Verdana;fontSize=15;fontColor=#FF3333;" vertex="1" parent="1">
          <mxGeometry x="110" y="140" width="30" height="60" as="geometry" />
        </mxCell>
        <mxCell id="YHhesyMBEtdhqf8lsZ6g-6" value="SQL" style="text;html=1;align=center;verticalAlign=middle;resizable=0;points=[];autosize=1;strokeColor=none;fillColor=none;fontSize=15;fontFamily=Verdana;fontColor=#FF3333;" vertex="1" parent="1">
          <mxGeometry x="360" y="450" width="50" height="30" as="geometry" />
        </mxCell>
        <mxCell id="YHhesyMBEtdhqf8lsZ6g-19" style="edgeStyle=orthogonalEdgeStyle;rounded=0;orthogonalLoop=1;jettySize=auto;html=1;exitX=1;exitY=0.5;exitDx=0;exitDy=0;fontFamily=Verdana;fontSize=15;fontColor=#FF3333;" edge="1" parent="1" source="YHhesyMBEtdhqf8lsZ6g-7" target="YHhesyMBEtdhqf8lsZ6g-20">
          <mxGeometry relative="1" as="geometry">
            <mxPoint x="670" y="370" as="targetPoint" />
          </mxGeometry>
        </mxCell>
        <mxCell id="YHhesyMBEtdhqf8lsZ6g-7" value="封装" style="rounded=0;whiteSpace=wrap;html=1;shadow=1;sketch=1;strokeColor=default;strokeWidth=1;fontFamily=Verdana;fontSize=15;fontColor=#FF3333;" vertex="1" parent="1">
          <mxGeometry x="330" y="340" width="120" height="60" as="geometry" />
        </mxCell>
        <mxCell id="YHhesyMBEtdhqf8lsZ6g-8" value="" style="endArrow=classic;html=1;rounded=0;fontFamily=Verdana;fontSize=15;fontColor=#FF3333;" edge="1" parent="1">
          <mxGeometry width="50" height="50" relative="1" as="geometry">
            <mxPoint x="280" y="570" as="sourcePoint" />
            <mxPoint x="280" y="170" as="targetPoint" />
          </mxGeometry>
        </mxCell>
        <mxCell id="YHhesyMBEtdhqf8lsZ6g-9" value="w r" style="endArrow=classic;startArrow=classic;html=1;rounded=0;fontFamily=Verdana;fontSize=15;fontColor=#FF3333;" edge="1" parent="1" source="YHhesyMBEtdhqf8lsZ6g-3" target="YHhesyMBEtdhqf8lsZ6g-2">
          <mxGeometry width="50" height="50" relative="1" as="geometry">
            <mxPoint x="130" y="230" as="sourcePoint" />
            <mxPoint x="180" y="180" as="targetPoint" />
          </mxGeometry>
        </mxCell>
        <mxCell id="YHhesyMBEtdhqf8lsZ6g-10" value="Get rooms？roomId=1" style="text;html=1;align=center;verticalAlign=middle;resizable=0;points=[];autosize=1;strokeColor=none;fillColor=none;fontSize=15;fontFamily=Verdana;fontColor=#FF3333;" vertex="1" parent="1">
          <mxGeometry x="415" y="235" width="190" height="30" as="geometry" />
        </mxCell>
        <mxCell id="YHhesyMBEtdhqf8lsZ6g-11" value="select * from room where id = ?" style="text;html=1;align=center;verticalAlign=middle;resizable=0;points=[];autosize=1;strokeColor=none;fillColor=none;fontSize=15;fontFamily=Verdana;fontColor=#FF3333;" vertex="1" parent="1">
          <mxGeometry x="450" y="440" width="270" height="30" as="geometry" />
        </mxCell>
        <mxCell id="YHhesyMBEtdhqf8lsZ6g-12" value="" style="endArrow=classic;startArrow=classic;html=1;rounded=0;fontFamily=Verdana;fontSize=15;fontColor=#FF3333;" edge="1" parent="1">
          <mxGeometry width="50" height="50" relative="1" as="geometry">
            <mxPoint x="390" y="520" as="sourcePoint" />
            <mxPoint x="390" y="400" as="targetPoint" />
          </mxGeometry>
        </mxCell>
        <mxCell id="YHhesyMBEtdhqf8lsZ6g-13" value="" style="swimlane;startSize=0;shadow=1;sketch=1;strokeColor=default;strokeWidth=1;fontFamily=Verdana;fontSize=15;fontColor=#FF3333;" vertex="1" parent="1">
          <mxGeometry x="300" y="660" width="200" height="200" as="geometry" />
        </mxCell>
        <mxCell id="YHhesyMBEtdhqf8lsZ6g-16" value="id&lt;br&gt;1" style="rounded=0;whiteSpace=wrap;html=1;shadow=1;sketch=1;strokeColor=default;strokeWidth=1;fontFamily=Verdana;fontSize=15;fontColor=#FF3333;" vertex="1" parent="YHhesyMBEtdhqf8lsZ6g-13">
          <mxGeometry x="20" y="90" width="120" height="60" as="geometry" />
        </mxCell>
        <mxCell id="YHhesyMBEtdhqf8lsZ6g-14" value="" style="endArrow=classic;html=1;rounded=0;fontFamily=Verdana;fontSize=15;fontColor=#FF3333;exitX=0.5;exitY=1;exitDx=0;exitDy=0;entryX=0.45;entryY=0;entryDx=0;entryDy=0;entryPerimeter=0;" edge="1" parent="1" source="YHhesyMBEtdhqf8lsZ6g-1" target="YHhesyMBEtdhqf8lsZ6g-13">
          <mxGeometry width="50" height="50" relative="1" as="geometry">
            <mxPoint x="390" y="630" as="sourcePoint" />
            <mxPoint x="440" y="580" as="targetPoint" />
          </mxGeometry>
        </mxCell>
        <mxCell id="YHhesyMBEtdhqf8lsZ6g-15" value="room" style="text;html=1;align=center;verticalAlign=middle;resizable=0;points=[];autosize=1;strokeColor=none;fillColor=none;fontSize=15;fontFamily=Verdana;fontColor=#FF3333;" vertex="1" parent="1">
          <mxGeometry x="310" y="705" width="60" height="30" as="geometry" />
        </mxCell>
        <mxCell id="YHhesyMBEtdhqf8lsZ6g-18" style="edgeStyle=orthogonalEdgeStyle;rounded=0;orthogonalLoop=1;jettySize=auto;html=1;exitX=0.5;exitY=0;exitDx=0;exitDy=0;fontFamily=Verdana;fontSize=15;fontColor=#FF3333;" edge="1" parent="1" source="YHhesyMBEtdhqf8lsZ6g-17">
          <mxGeometry relative="1" as="geometry">
            <mxPoint x="620" y="380" as="targetPoint" />
          </mxGeometry>
        </mxCell>
        <mxCell id="YHhesyMBEtdhqf8lsZ6g-17" value="temp" style="rounded=0;whiteSpace=wrap;html=1;shadow=1;sketch=1;strokeColor=default;strokeWidth=1;fontFamily=Verdana;fontSize=15;fontColor=#FF3333;" vertex="1" parent="1">
          <mxGeometry x="560" y="750" width="120" height="60" as="geometry" />
        </mxCell>
        <mxCell id="YHhesyMBEtdhqf8lsZ6g-22" style="edgeStyle=orthogonalEdgeStyle;rounded=0;orthogonalLoop=1;jettySize=auto;html=1;exitX=0.5;exitY=0;exitDx=0;exitDy=0;entryX=1;entryY=0.5;entryDx=0;entryDy=0;fontFamily=Verdana;fontSize=15;fontColor=#FF3333;" edge="1" parent="1" source="YHhesyMBEtdhqf8lsZ6g-20" target="YHhesyMBEtdhqf8lsZ6g-2">
          <mxGeometry relative="1" as="geometry" />
        </mxCell>
        <mxCell id="YHhesyMBEtdhqf8lsZ6g-20" value="isEmpty?" style="rounded=0;whiteSpace=wrap;html=1;shadow=1;sketch=1;strokeColor=default;strokeWidth=1;fontFamily=Verdana;fontSize=15;fontColor=#FF3333;" vertex="1" parent="1">
          <mxGeometry x="610" y="340" width="120" height="60" as="geometry" />
        </mxCell>
        <mxCell id="YHhesyMBEtdhqf8lsZ6g-23" value="Query Luangage" style="text;html=1;align=center;verticalAlign=middle;resizable=0;points=[];autosize=1;strokeColor=none;fillColor=none;fontSize=15;fontFamily=Verdana;fontColor=#FF3333;" vertex="1" parent="1">
          <mxGeometry x="-30" y="610" width="150" height="30" as="geometry" />
        </mxCell>
        <mxCell id="YHhesyMBEtdhqf8lsZ6g-24" value="Node&lt;br&gt;JAVA&lt;br&gt;Python" style="text;html=1;align=center;verticalAlign=middle;resizable=0;points=[];autosize=1;strokeColor=none;fillColor=none;fontSize=15;fontFamily=Verdana;fontColor=#FF3333;" vertex="1" parent="1">
          <mxGeometry x="-200" y="210" width="80" height="70" as="geometry" />
        </mxCell>
        <mxCell id="YHhesyMBEtdhqf8lsZ6g-31" style="edgeStyle=orthogonalEdgeStyle;rounded=0;orthogonalLoop=1;jettySize=auto;html=1;exitX=0.5;exitY=1;exitDx=0;exitDy=0;entryX=0.465;entryY=0;entryDx=0;entryDy=0;entryPerimeter=0;fontFamily=Verdana;fontSize=15;fontColor=#FF3333;" edge="1" parent="1" source="YHhesyMBEtdhqf8lsZ6g-25" target="YHhesyMBEtdhqf8lsZ6g-13">
          <mxGeometry relative="1" as="geometry" />
        </mxCell>
        <mxCell id="YHhesyMBEtdhqf8lsZ6g-25" value="Driver" style="rounded=0;whiteSpace=wrap;html=1;shadow=1;sketch=1;strokeColor=default;strokeWidth=1;fontFamily=Verdana;fontSize=15;fontColor=#FF3333;" vertex="1" parent="1">
          <mxGeometry x="-10" y="500" width="120" height="60" as="geometry" />
        </mxCell>
        <mxCell id="YHhesyMBEtdhqf8lsZ6g-26" value="驱动" style="text;html=1;align=center;verticalAlign=middle;resizable=0;points=[];autosize=1;strokeColor=none;fillColor=none;fontSize=15;fontFamily=Verdana;fontColor=#FF3333;" vertex="1" parent="1">
          <mxGeometry x="-80" y="520" width="50" height="30" as="geometry" />
        </mxCell>
        <mxCell id="YHhesyMBEtdhqf8lsZ6g-27" value="var sql =&amp;nbsp;" style="text;html=1;align=center;verticalAlign=middle;resizable=0;points=[];autosize=1;strokeColor=none;fillColor=none;fontSize=15;fontFamily=Verdana;fontColor=#FF3333;" vertex="1" parent="1">
          <mxGeometry x="-210" y="315" width="100" height="30" as="geometry" />
        </mxCell>
        <mxCell id="YHhesyMBEtdhqf8lsZ6g-28" value="select * from room where id = ?" style="text;html=1;align=center;verticalAlign=middle;resizable=0;points=[];autosize=1;strokeColor=none;fillColor=none;fontSize=15;fontFamily=Verdana;fontColor=#FF3333;" vertex="1" parent="1">
          <mxGeometry x="-110" y="315" width="270" height="30" as="geometry" />
        </mxCell>
        <mxCell id="YHhesyMBEtdhqf8lsZ6g-29" value="" style="endArrow=classic;html=1;rounded=0;fontFamily=Verdana;fontSize=15;fontColor=#FF3333;exitX=0.496;exitY=0.967;exitDx=0;exitDy=0;exitPerimeter=0;entryX=0.308;entryY=-0.05;entryDx=0;entryDy=0;entryPerimeter=0;" edge="1" parent="1" source="YHhesyMBEtdhqf8lsZ6g-28" target="YHhesyMBEtdhqf8lsZ6g-25">
          <mxGeometry width="50" height="50" relative="1" as="geometry">
            <mxPoint x="30" y="390" as="sourcePoint" />
            <mxPoint x="80" y="340" as="targetPoint" />
          </mxGeometry>
        </mxCell>
        <mxCell id="YHhesyMBEtdhqf8lsZ6g-30" value="引擎" style="text;html=1;align=center;verticalAlign=middle;resizable=0;points=[];autosize=1;strokeColor=none;fillColor=none;fontSize=15;fontFamily=Verdana;fontColor=#FF3333;" vertex="1" parent="1">
          <mxGeometry x="385" y="675" width="50" height="30" as="geometry" />
        </mxCell>
        <mxCell id="YHhesyMBEtdhqf8lsZ6g-32" value="Text" style="text;html=1;align=center;verticalAlign=middle;resizable=0;points=[];autosize=1;strokeColor=none;fillColor=none;fontSize=15;fontFamily=Verdana;fontColor=#FF3333;" vertex="1" parent="1">
          <mxGeometry x="-200" y="710" width="40" height="20" as="geometry" />
        </mxCell>
        <mxCell id="YHhesyMBEtdhqf8lsZ6g-33" value="" style="endArrow=none;html=1;rounded=0;fontFamily=Verdana;fontSize=15;fontColor=#FF3333;" edge="1" parent="1">
          <mxGeometry width="50" height="50" relative="1" as="geometry">
            <mxPoint x="400" y="620" as="sourcePoint" />
            <mxPoint x="460" y="620" as="targetPoint" />
          </mxGeometry>
        </mxCell>
        <mxCell id="YHhesyMBEtdhqf8lsZ6g-34" value="ABD 词法分析树" style="text;html=1;align=center;verticalAlign=middle;resizable=0;points=[];autosize=1;strokeColor=none;fillColor=none;fontSize=15;fontFamily=Verdana;fontColor=#FF3333;" vertex="1" parent="1">
          <mxGeometry x="420" y="605" width="140" height="30" as="geometry" />
        </mxCell>
        <mxCell id="cW4cuwbKBk71YlbgjgZO-4" style="edgeStyle=orthogonalEdgeStyle;rounded=0;orthogonalLoop=1;jettySize=auto;html=1;exitX=1;exitY=0.5;exitDx=0;exitDy=0;entryX=0;entryY=0.5;entryDx=0;entryDy=0;fontFamily=Verdana;fontSize=15;fontColor=#FF3333;" edge="1" parent="1" source="cW4cuwbKBk71YlbgjgZO-1" target="cW4cuwbKBk71YlbgjgZO-2">
          <mxGeometry relative="1" as="geometry" />
        </mxCell>
        <mxCell id="cW4cuwbKBk71YlbgjgZO-6" style="edgeStyle=orthogonalEdgeStyle;rounded=0;orthogonalLoop=1;jettySize=auto;html=1;exitX=0.5;exitY=1;exitDx=0;exitDy=0;fontFamily=Verdana;fontSize=15;fontColor=#FF3333;" edge="1" parent="1" source="cW4cuwbKBk71YlbgjgZO-1">
          <mxGeometry relative="1" as="geometry">
            <mxPoint x="820" y="1220" as="targetPoint" />
          </mxGeometry>
        </mxCell>
        <mxCell id="cW4cuwbKBk71YlbgjgZO-1" value="1&lt;br&gt;2&lt;br&gt;3&lt;br&gt;&lt;br&gt;id = 1" style="rounded=0;whiteSpace=wrap;html=1;shadow=1;sketch=1;strokeColor=default;strokeWidth=1;fontFamily=Verdana;fontSize=15;fontColor=#FF3333;" vertex="1" parent="1">
          <mxGeometry x="180" y="960" width="390" height="160" as="geometry" />
        </mxCell>
        <mxCell id="cW4cuwbKBk71YlbgjgZO-5" style="edgeStyle=orthogonalEdgeStyle;rounded=0;orthogonalLoop=1;jettySize=auto;html=1;exitX=1;exitY=0.5;exitDx=0;exitDy=0;fontFamily=Verdana;fontSize=15;fontColor=#FF3333;" edge="1" parent="1" source="cW4cuwbKBk71YlbgjgZO-2" target="cW4cuwbKBk71YlbgjgZO-3">
          <mxGeometry relative="1" as="geometry" />
        </mxCell>
        <mxCell id="cW4cuwbKBk71YlbgjgZO-7" style="edgeStyle=orthogonalEdgeStyle;rounded=0;orthogonalLoop=1;jettySize=auto;html=1;exitX=0.5;exitY=1;exitDx=0;exitDy=0;fontFamily=Verdana;fontSize=15;fontColor=#FF3333;" edge="1" parent="1" source="cW4cuwbKBk71YlbgjgZO-2">
          <mxGeometry relative="1" as="geometry">
            <mxPoint x="820" y="1220" as="targetPoint" />
          </mxGeometry>
        </mxCell>
        <mxCell id="cW4cuwbKBk71YlbgjgZO-2" value="1 - &amp;gt; a&lt;br&gt;2-&amp;gt; b" style="rounded=0;whiteSpace=wrap;html=1;shadow=1;sketch=1;strokeColor=default;strokeWidth=1;fontFamily=Verdana;fontSize=15;fontColor=#FF3333;" vertex="1" parent="1">
          <mxGeometry x="650" y="965" width="390" height="150" as="geometry" />
        </mxCell>
        <mxCell id="cW4cuwbKBk71YlbgjgZO-8" style="edgeStyle=orthogonalEdgeStyle;rounded=0;orthogonalLoop=1;jettySize=auto;html=1;exitX=0.5;exitY=1;exitDx=0;exitDy=0;fontFamily=Verdana;fontSize=15;fontColor=#FF3333;" edge="1" parent="1" source="cW4cuwbKBk71YlbgjgZO-3">
          <mxGeometry relative="1" as="geometry">
            <mxPoint x="820" y="1210" as="targetPoint" />
          </mxGeometry>
        </mxCell>
        <mxCell id="cW4cuwbKBk71YlbgjgZO-3" value="a -&amp;gt; 002" style="rounded=0;whiteSpace=wrap;html=1;shadow=1;sketch=1;strokeColor=default;strokeWidth=1;fontFamily=Verdana;fontSize=15;fontColor=#FF3333;" vertex="1" parent="1">
          <mxGeometry x="1140" y="970" width="370" height="150" as="geometry" />
        </mxCell>
        <mxCell id="cW4cuwbKBk71YlbgjgZO-9" value="Temp" style="rounded=0;whiteSpace=wrap;html=1;shadow=1;sketch=1;strokeColor=default;strokeWidth=1;fontFamily=Verdana;fontSize=15;fontColor=#FF3333;" vertex="1" parent="1">
          <mxGeometry x="760" y="1220" width="120" height="60" as="geometry" />
        </mxCell>
        <mxCell id="cW4cuwbKBk71YlbgjgZO-11" style="edgeStyle=orthogonalEdgeStyle;rounded=0;orthogonalLoop=1;jettySize=auto;html=1;exitX=0.5;exitY=1;exitDx=0;exitDy=0;fontFamily=Verdana;fontSize=15;fontColor=#FF3333;" edge="1" parent="1" source="cW4cuwbKBk71YlbgjgZO-10" target="cW4cuwbKBk71YlbgjgZO-2">
          <mxGeometry relative="1" as="geometry" />
        </mxCell>
        <mxCell id="cW4cuwbKBk71YlbgjgZO-10" value="a" style="rounded=0;whiteSpace=wrap;html=1;shadow=1;sketch=1;strokeColor=default;strokeWidth=1;fontFamily=Verdana;fontSize=15;fontColor=#FF3333;" vertex="1" parent="1">
          <mxGeometry x="860" y="840" width="120" height="60" as="geometry" />
        </mxCell>
      </root>
    </mxGraphModel>
  </diagram>
</mxfile>
